nColumns=19
nRows=39
DataType=double
version=3
OpenSimVersion=4.1
endheader
time	ground_force_1_vx	ground_force_1_vy	ground_force_1_vz	ground_force_1_px	ground_force_1_py	ground_force_1_pz	ground_force_1_mx	ground_force_1_my	ground_force_1_mz	ground_force_2_vx	ground_force_2_vy	ground_force_2_vz	ground_force_2_px	ground_force_2_py	ground_force_2_pz	ground_force_2_mx	ground_force_2_my	ground_force_2_mz
0	-130.183	640.937	-3.33171	0.165055	0.006	-0.176629	0	-0.690246	0	0	0	0	0.750678	0	-0.195355	0	0	0
0.01	-132.529	656.725	-6.61573	0.16862	0.006	-0.175221	0	-0.603634	0	0	0	0	0.750678	0	-0.195355	0	0	0
0.02	-134.679	673.807	-9.9433	0.173074	0.006	-0.17347	0	-0.48367	0	0	0	0	0.750678	0	-0.195355	0	0	0
0.03	-136.439	691.586	-13.1788	0.177692	0.006	-0.17166	0	-0.333652	0	0	0	0	0.750678	0	-0.195355	0	0	0
0.04	-137.632	709.335	-16.2147	0.182365	0.006	-0.16983	0	-0.160577	0	0	0	0	0.750678	0	-0.195355	0	0	0
0.05	-138.128	726.261	-18.9768	0.18701	0.006	-0.168004	0	0.027166	0	0	0	0	0.750678	0	-0.195355	0	0	0
0.06	-137.857	741.58	-21.4287	0.191572	0.006	-0.166195	0	0.220763	0	0	0	0	0.750678	0	-0.195355	0	0	0
0.07	-136.804	754.583	-23.5698	0.196026	0.006	-0.164405	0	0.411732	0	0	0	0	0.750678	0	-0.195355	0	0	0
0.08	-135	764.692	-25.42	0.20036	0.006	-0.162634	0	0.59313	0	0	0	0	0.750678	0	-0.195355	0	0	0
0.09	-132.501	771.491	-27	0.204575	0.006	-0.160879	0	0.76001	0	0	0	0	0.750678	0	-0.195355	0	0	0
0.1	-129.377	774.755	-28.3189	0.208675	0.006	-0.159139	0	0.908784	0	0	0	0	0.750678	0	-0.195355	0	0	0
0.11	-125.705	774.459	-29.3698	0.212667	0.006	-0.157413	0	1.0362	0	0	0	0	0.750678	0	-0.195355	0	0	0
0.12	-121.567	770.767	-30.1305	0.216557	0.006	-0.155703	0	1.13848	0	0	0	0	0.750678	0	-0.195355	0	0	0
0.13	-117.056	764.011	-30.5671	0.220349	0.006	-0.154015	0	1.21096	0	0	0	0	0.750678	0	-0.195355	0	0	0
0.14	-112.264	754.666	-30.6421	0.224048	0.006	-0.152354	0	1.24874	0	0	0	0	0.750678	0	-0.195355	0	0	0
0.15	-107.285	743.324	-30.3291	0.227651	0.006	-0.150729	0	1.24778	0	0	0	0	0.750678	0	-0.195355	0	0	0
0.16	-102.201	730.662	-29.6279	0.231148	0.006	-0.14915	0	1.20633	0	0	0	0	0.750678	0	-0.195355	0	0	0
0.17	-97.0823	717.39	-28.5746	0.234519	0.006	-0.147627	0	1.12594	0	0	0	0	0.750678	0	-0.195355	0	0	0
0.18	-91.9862	704.189	-27.2431	0.237738	0.006	-0.146173	0	1.01142	0	0	0	0	0.750678	0	-0.195355	0	0	0
0.19	-86.9604	691.663	-25.7364	0.240771	0.006	-0.144799	0	0.870113	0	0	0	0	0.750678	0	-0.195355	0	0	0
0.2	-82.0422	680.305	-24.17	0.243583	0.006	-0.143517	0	0.710608	0	0	0	0	0.750678	0	-0.195355	0	0	0
0.21	-77.2572	670.488	-22.6513	0.246141	0.006	-0.142338	0	0.54141	0	0	0	0	0.750678	0	-0.195355	0	0	0
0.22	-72.6172	662.461	-21.2626	0.248417	0.006	-0.141275	0	0.369709	0	0	0	0	0.750678	0	-0.195355	0	0	0
0.23	-68.1198	656.359	-20.0508	0.250388	0.006	-0.140341	0	0.200478	0	0	0	0	0.750678	0	-0.195355	0	0	0
0.24	-63.7499	652.214	-19.0265	0.252042	0.006	-0.139547	0	0.036096	0	0	0	0	0.750678	0	-0.195355	0	0	0
0.25	-59.4845	649.975	-18.171	0.253381	0.006	-0.138907	0	-0.123537	0	0	0	0	0.750678	0	-0.195355	0	0	0
0.26	-55.2971	649.525	-17.4494	0.254417	0.006	-0.13843	0	-0.280525	0	0	0	0	0.750678	0	-0.195355	0	0	0
0.27	-51.1625	650.694	-16.8225	0.255178	0.006	-0.138122	0	-0.438328	0	0	0	0	0.750678	0	-0.195355	0	0	0
0.28	-47.06	653.278	-16.2557	0.255701	0.006	-0.137984	0	-0.601131	0	0	0	0	0.750678	0	-0.195355	0	0	0
0.29	-42.974	657.052	-15.7251	0.256032	0.006	-0.138014	0	-0.77313	0	0	0	0	0.750678	0	-0.195355	0	0	0
0.3	-38.8963	661.787	-15.2204	0.256222	0.006	-0.138204	0	-0.957833	0	0	0	0	0.750678	0	-0.195355	0	0	0
0.31	-34.8258	667.273	-14.7434	0.256325	0.006	-0.138546	0	-1.1578	0	0	0	0	0.750678	0	-0.195355	0	0	0
0.32	-30.7674	673.326	-14.3045	0.256396	0.006	-0.139027	0	-1.37472	0	0	0	0	0.750678	0	-0.195355	0	0	0
0.33	-26.7316	679.8	-13.9176	0.256488	0.006	-0.139632	0	-1.60958	0	0	0	0	0.750678	0	-0.195355	0	0	0
0.34	-22.7339	686.576	-13.5963	0.256654	0.006	-0.140346	0	-1.86271	0	0	0	0	0.750678	0	-0.195355	0	0	0
0.35	-18.7913	693.558	-13.3493	0.256945	0.006	-0.141149	0	-2.13364	0	0	0	0	0.750678	0	-0.195355	0	0	0
0.36	-14.9159	700.67	-13.1802	0.257407	0.006	-0.142021	0	-2.42067	0	0	0	0	0.750678	0	-0.195355	0	0	0
0.37	-11.1105	707.859	-13.0891	0.258077	0.006	-0.14294	0	-2.72054	0	0	0	0	0.750678	0	-0.195355	0	0	0
0.38	-7.36342	715.099	-13.0766	0.258985	0.006	-0.143883	0	-3.02848	0	0	0	0	0.750678	0	-0.195355	0	0	0
